<mxfile host="app.diagrams.net" modified="2023-09-17T22:41:12.278Z" agent="Mozilla/5.0 (Windows NT 10.0; Win64; x64; rv:109.0) Gecko/20100101 Firefox/117.0" etag="u-NTzV3zTTkElyHgu-Al" version="21.7.5" type="device">
  <diagram name="Page-1" id="J_R93TQDcipUQHHUqhzb">
    <mxGraphModel dx="2074" dy="820" grid="1" gridSize="10" guides="1" tooltips="1" connect="1" arrows="1" fold="1" page="1" pageScale="1" pageWidth="850" pageHeight="1100" math="0" shadow="0">
      <root>
        <mxCell id="0" />
        <mxCell id="1" parent="0" />
        <mxCell id="GaQF0V6TJ1vdaj1xBdic-26" value="" style="whiteSpace=wrap;html=1;fillColor=none;fontFamily=Roboto;fontSource=https%3A%2F%2Ffonts.googleapis.com%2Fcss%3Ffamily%3DRoboto;" parent="1" vertex="1">
          <mxGeometry x="350" y="305" width="240" height="490" as="geometry" />
        </mxCell>
        <mxCell id="GaQF0V6TJ1vdaj1xBdic-17" style="rounded=0;orthogonalLoop=1;jettySize=auto;html=1;endArrow=none;endFill=0;fontFamily=Roboto;fontSource=https%3A%2F%2Ffonts.googleapis.com%2Fcss%3Ffamily%3DRoboto;" parent="1" source="GaQF0V6TJ1vdaj1xBdic-2" target="GaQF0V6TJ1vdaj1xBdic-4" edge="1">
          <mxGeometry relative="1" as="geometry" />
        </mxCell>
        <mxCell id="GaQF0V6TJ1vdaj1xBdic-18" style="rounded=0;orthogonalLoop=1;jettySize=auto;html=1;entryX=0;entryY=0.5;entryDx=0;entryDy=0;endArrow=none;endFill=0;fontFamily=Roboto;fontSource=https%3A%2F%2Ffonts.googleapis.com%2Fcss%3Ffamily%3DRoboto;" parent="1" source="GaQF0V6TJ1vdaj1xBdic-2" target="GaQF0V6TJ1vdaj1xBdic-9" edge="1">
          <mxGeometry relative="1" as="geometry" />
        </mxCell>
        <mxCell id="GaQF0V6TJ1vdaj1xBdic-2" value="UsuÃ¡rio" style="shape=umlActor;verticalLabelPosition=bottom;verticalAlign=top;html=1;outlineConnect=0;fontFamily=Roboto;fontSource=https%3A%2F%2Ffonts.googleapis.com%2Fcss%3Ffamily%3DRoboto;" parent="1" vertex="1">
          <mxGeometry x="260" y="425" width="30" height="60" as="geometry" />
        </mxCell>
        <mxCell id="GaQF0V6TJ1vdaj1xBdic-3" value="Login" style="ellipse;whiteSpace=wrap;html=1;fontFamily=Roboto;fontSource=https%3A%2F%2Ffonts.googleapis.com%2Fcss%3Ffamily%3DRoboto;" parent="1" vertex="1">
          <mxGeometry x="490" y="365" width="90" height="60" as="geometry" />
        </mxCell>
        <mxCell id="GaQF0V6TJ1vdaj1xBdic-4" value="Cadastrar" style="ellipse;whiteSpace=wrap;html=1;fontFamily=Roboto;fontSource=https%3A%2F%2Ffonts.googleapis.com%2Fcss%3Ffamily%3DRoboto;" parent="1" vertex="1">
          <mxGeometry x="370" y="315" width="100" height="60" as="geometry" />
        </mxCell>
        <mxCell id="GaQF0V6TJ1vdaj1xBdic-19" style="rounded=0;orthogonalLoop=1;jettySize=auto;html=1;entryX=0;entryY=0.5;entryDx=0;entryDy=0;endArrow=none;endFill=0;fontFamily=Roboto;fontSource=https%3A%2F%2Ffonts.googleapis.com%2Fcss%3Ffamily%3DRoboto;" parent="1" source="GaQF0V6TJ1vdaj1xBdic-5" target="GaQF0V6TJ1vdaj1xBdic-10" edge="1">
          <mxGeometry relative="1" as="geometry" />
        </mxCell>
        <mxCell id="GaQF0V6TJ1vdaj1xBdic-20" style="rounded=0;orthogonalLoop=1;jettySize=auto;html=1;entryX=0;entryY=0.5;entryDx=0;entryDy=0;endArrow=none;endFill=0;fontFamily=Roboto;fontSource=https%3A%2F%2Ffonts.googleapis.com%2Fcss%3Ffamily%3DRoboto;" parent="1" source="GaQF0V6TJ1vdaj1xBdic-5" target="GaQF0V6TJ1vdaj1xBdic-11" edge="1">
          <mxGeometry relative="1" as="geometry" />
        </mxCell>
        <mxCell id="GaQF0V6TJ1vdaj1xBdic-5" value="Agente" style="shape=umlActor;verticalLabelPosition=bottom;verticalAlign=top;html=1;outlineConnect=0;fontFamily=Roboto;fontSource=https%3A%2F%2Ffonts.googleapis.com%2Fcss%3Ffamily%3DRoboto;" parent="1" vertex="1">
          <mxGeometry x="260" y="565" width="30" height="60" as="geometry" />
        </mxCell>
        <mxCell id="GaQF0V6TJ1vdaj1xBdic-23" style="rounded=0;orthogonalLoop=1;jettySize=auto;html=1;entryX=0.287;entryY=0.883;entryDx=0;entryDy=0;dashed=1;entryPerimeter=0;fontFamily=Roboto;fontSource=https%3A%2F%2Ffonts.googleapis.com%2Fcss%3Ffamily%3DRoboto;" parent="1" source="GaQF0V6TJ1vdaj1xBdic-9" target="GaQF0V6TJ1vdaj1xBdic-3" edge="1">
          <mxGeometry relative="1" as="geometry" />
        </mxCell>
        <mxCell id="GaQF0V6TJ1vdaj1xBdic-24" value="&amp;lt;include&amp;gt;" style="edgeLabel;html=1;align=center;verticalAlign=middle;resizable=0;points=[];fontFamily=Roboto;fontSource=https%3A%2F%2Ffonts.googleapis.com%2Fcss%3Ffamily%3DRoboto;" parent="GaQF0V6TJ1vdaj1xBdic-23" vertex="1" connectable="0">
          <mxGeometry x="0.0731" y="-3" relative="1" as="geometry">
            <mxPoint x="-3" as="offset" />
          </mxGeometry>
        </mxCell>
        <mxCell id="GaQF0V6TJ1vdaj1xBdic-9" value="Gerenciar pedido" style="ellipse;whiteSpace=wrap;html=1;fontFamily=Roboto;fontSource=https%3A%2F%2Ffonts.googleapis.com%2Fcss%3Ffamily%3DRoboto;" parent="1" vertex="1">
          <mxGeometry x="370" y="465" width="90" height="60" as="geometry" />
        </mxCell>
        <mxCell id="GaQF0V6TJ1vdaj1xBdic-10" value="Editar&amp;nbsp; pedido" style="ellipse;whiteSpace=wrap;html=1;fontFamily=Roboto;fontSource=https%3A%2F%2Ffonts.googleapis.com%2Fcss%3Ffamily%3DRoboto;" parent="1" vertex="1">
          <mxGeometry x="370" y="555" width="90" height="60" as="geometry" />
        </mxCell>
        <mxCell id="GaQF0V6TJ1vdaj1xBdic-11" value="Avaliar pedido" style="ellipse;whiteSpace=wrap;html=1;fontFamily=Roboto;fontSource=https%3A%2F%2Ffonts.googleapis.com%2Fcss%3Ffamily%3DRoboto;" parent="1" vertex="1">
          <mxGeometry x="370" y="645" width="90" height="60" as="geometry" />
        </mxCell>
        <mxCell id="GaQF0V6TJ1vdaj1xBdic-14" style="rounded=0;orthogonalLoop=1;jettySize=auto;html=1;entryX=1;entryY=0.5;entryDx=0;entryDy=0;dashed=1;fontFamily=Roboto;fontSource=https%3A%2F%2Ffonts.googleapis.com%2Fcss%3Ffamily%3DRoboto;" parent="1" source="GaQF0V6TJ1vdaj1xBdic-12" target="GaQF0V6TJ1vdaj1xBdic-11" edge="1">
          <mxGeometry relative="1" as="geometry" />
        </mxCell>
        <mxCell id="GaQF0V6TJ1vdaj1xBdic-15" value="&amp;lt;extends&amp;gt;" style="edgeLabel;html=1;align=center;verticalAlign=middle;resizable=0;points=[];fontFamily=Roboto;fontSource=https%3A%2F%2Ffonts.googleapis.com%2Fcss%3Ffamily%3DRoboto;" parent="GaQF0V6TJ1vdaj1xBdic-14" vertex="1" connectable="0">
          <mxGeometry x="0.0585" relative="1" as="geometry">
            <mxPoint x="10" y="-2" as="offset" />
          </mxGeometry>
        </mxCell>
        <mxCell id="GaQF0V6TJ1vdaj1xBdic-12" value="Executar contrato" style="ellipse;whiteSpace=wrap;html=1;fontFamily=Roboto;fontSource=https%3A%2F%2Ffonts.googleapis.com%2Fcss%3Ffamily%3DRoboto;" parent="1" vertex="1">
          <mxGeometry x="490" y="725" width="90" height="60" as="geometry" />
        </mxCell>
      </root>
    </mxGraphModel>
  </diagram>
</mxfile>
